solid ASCII
  facet normal 0.000000e+00 -0.000000e+00 1.000000e+00
    outer loop
      vertex   4.634645e+01 -1.002617e+01 1.000000e+01
      vertex   4.634645e+01 2.148677e+01 1.000000e+01
      vertex   3.512898e+00 -1.002617e+01 1.000000e+01
    endloop
  endfacet
  facet normal 0.000000e+00 0.000000e+00 1.000000e+00
    outer loop
      vertex   3.512898e+00 -1.002617e+01 1.000000e+01
      vertex   4.634645e+01 2.148677e+01 1.000000e+01
      vertex   3.512898e+00 2.148677e+01 1.000000e+01
    endloop
  endfacet
  facet normal 0.000000e+00 0.000000e+00 -1.000000e+00
    outer loop
      vertex   3.512898e+00 -1.002617e+01 0.000000e+00
      vertex   3.512898e+00 2.148677e+01 0.000000e+00
      vertex   4.634645e+01 -1.002617e+01 0.000000e+00
    endloop
  endfacet
  facet normal 0.000000e+00 0.000000e+00 -1.000000e+00
    outer loop
      vertex   4.634645e+01 -1.002617e+01 0.000000e+00
      vertex   3.512898e+00 2.148677e+01 0.000000e+00
      vertex   4.634645e+01 2.148677e+01 0.000000e+00
    endloop
  endfacet
  facet normal -1.000000e+00 -0.000000e+00 -0.000000e+00
    outer loop
      vertex   3.512898e+00 2.148677e+01 1.000000e+01
      vertex   3.512898e+00 2.148677e+01 0.000000e+00
      vertex   3.512898e+00 -1.002617e+01 1.000000e+01
    endloop
  endfacet
  facet normal -1.000000e+00 0.000000e+00 0.000000e+00
    outer loop
      vertex   3.512898e+00 -1.002617e+01 1.000000e+01
      vertex   3.512898e+00 2.148677e+01 0.000000e+00
      vertex   3.512898e+00 -1.002617e+01 0.000000e+00
    endloop
  endfacet
  facet normal 0.000000e+00 1.000000e+00 0.000000e+00
    outer loop
      vertex   4.634645e+01 2.148677e+01 1.000000e+01
      vertex   4.634645e+01 2.148677e+01 0.000000e+00
      vertex   3.512898e+00 2.148677e+01 1.000000e+01
    endloop
  endfacet
  facet normal 0.000000e+00 1.000000e+00 0.000000e+00
    outer loop
      vertex   3.512898e+00 2.148677e+01 1.000000e+01
      vertex   4.634645e+01 2.148677e+01 0.000000e+00
      vertex   3.512898e+00 2.148677e+01 0.000000e+00
    endloop
  endfacet
  facet normal 1.000000e+00 -0.000000e+00 0.000000e+00
    outer loop
      vertex   4.634645e+01 -1.002617e+01 1.000000e+01
      vertex   4.634645e+01 -1.002617e+01 0.000000e+00
      vertex   4.634645e+01 2.148677e+01 1.000000e+01
    endloop
  endfacet
  facet normal 1.000000e+00 0.000000e+00 0.000000e+00
    outer loop
      vertex   4.634645e+01 2.148677e+01 1.000000e+01
      vertex   4.634645e+01 -1.002617e+01 0.000000e+00
      vertex   4.634645e+01 2.148677e+01 0.000000e+00
    endloop
  endfacet
  facet normal 0.000000e+00 -1.000000e+00 0.000000e+00
    outer loop
      vertex   3.512898e+00 -1.002617e+01 1.000000e+01
      vertex   3.512898e+00 -1.002617e+01 0.000000e+00
      vertex   4.634645e+01 -1.002617e+01 1.000000e+01
    endloop
  endfacet
  facet normal 0.000000e+00 -1.000000e+00 -0.000000e+00
    outer loop
      vertex   4.634645e+01 -1.002617e+01 1.000000e+01
      vertex   3.512898e+00 -1.002617e+01 0.000000e+00
      vertex   4.634645e+01 -1.002617e+01 0.000000e+00
    endloop
  endfacet
endsolid
